PathFileType	4	(X/Y/Z)	C:\Users\WrightLab\Desktop\Jo\P1_boxCal30.trc
DataRate	CameraRate	NumFrames	NumMarkers	Units	OrigDataRate	OrigDataStartFrame	OrigNumFrames
100.00	100.00	       8	19	mm	100.00	181	       481
Frame#	Time	Headset_Front			Headset_Back			Headset_Left			Headset_Right			Left_Shoulder			Right_Shoulder			Sternum			C7			Left Elbow			Right Elbow			Left Wrist			Right Wrist			Left ASIS			Right ASIS			S2			Left Knee			Right Knee			Left Ankle			Right Ankle			
		X1	Y1	Z1	X2	Y2	Z2	X3	Y3	Z3	X4	Y4	Z4	X5	Y5	Z5	X6	Y6	Z6	X7	Y7	Z7	X8	Y8	Z8	X9	Y9	Z9	X10	Y10	Z10	X11	Y11	Z11	X12	Y12	Z12	X13	Y13	Z13	X14	Y14	Z14	X15	Y15	Z15	X16	Y16	Z16	X17	Y17	Z17	X18	Y18	Z18	X19	Y19	Z19	

181	1.800	-684.69098	1414.07739	488.64542	-764.52740	1498.00488	206.15952	-628.25806	1444.52234	292.42715	-815.16504	1446.17981	419.01212	-575.40845	1269.12085	211.55162	-928.24762	1262.40222	350.51178	-721.36401	1168.66968	409.41458	-783.01050	1267.57361	171.54738	-529.37518	954.23248	124.84999	-1037.40527	1001.93903	377.02261	-434.66574	763.15643	176.43346	-1041.91125	795.44403	534.12238	-624.85791	887.62292	411.02350	-826.58966	882.41345	430.39343	-763.10431	883.57263	103.31435	-536.59949	493.35556	413.12122	-905.90839	439.17487	287.33646	-528.71625	112.81969	470.99170				
182	1.810	-682.13947	1412.78784	499.04593	-762.77789	1496.45276	216.25883	-626.47742	1442.86658	303.10504	-812.55688	1444.37451	429.71545	-574.13068	1267.60376	221.64734	-925.72833	1260.86023	362.30124	-718.79474	1165.36157	418.31964	-781.20728	1266.28723	182.29591	-528.08344	952.92041	134.50243	-1034.20728	1000.99036	393.39529	-433.16791	762.12067	183.87830	-1034.88354	796.59296	553.18951	-623.13556	885.26788	421.40796	-825.31757	880.54370	441.14566	-759.78839	882.74951	113.24776	-537.74139	489.05310	421.90402	-904.88446	437.81482	292.67511	-520.97119	114.73995	498.40283				
183	1.820	-679.35681	1410.91016	509.40100	-760.79944	1494.57727	226.89183	-623.91937	1441.65442	311.58710	-809.93097	1442.75610	440.30402	-571.78302	1265.29065	232.06175	-922.53265	1259.04102	373.48560	-716.34552	1161.81262	429.98322	-779.14856	1264.83960	192.71248	-526.94330	950.89447	144.39883	-1030.34253	999.80353	409.11758	-431.09637	760.44135	191.71339	-1027.78711	797.83990	572.00696	-621.62128	882.53412	431.70193	-823.52313	877.90674	451.30933	-756.24915	880.95715	123.65917	-537.49347	484.69849	430.97385	-903.41040	436.34570	298.57672	-514.93628	118.73437	525.54712				
184	1.830	-675.93768	1409.97644	519.35669	-758.54449	1493.07458	237.69690	-621.39539	1439.85132	323.19650	-806.88416	1440.65051	450.87527	-568.66467	1263.75574	242.14049	-919.52777	1257.38367	384.62018	-711.81738	1162.95825	446.22195	-777.24402	1263.11914	203.11987	-525.76685	949.19147	153.82224	-1026.28711	998.65540	424.59671	-428.67126	758.60706	199.78041	-1020.74426	799.35205	589.89783	-619.74457	880.26648	442.25742	-822.05682	875.71686	461.60712	-753.12506	880.14978	134.27225	-535.53937	481.54297	438.79593	-901.37158	434.96182	304.20065	-509.66583	122.92259	548.25616				
185	1.840	-672.70807	1408.25354	529.82538	-756.04071	1491.32739	248.53566	-618.60138	1438.45142	333.56323	-803.67847	1439.03101	461.65891	-566.25940	1262.08301	252.56810	-916.34320	1255.71753	395.49103	-711.21387	1158.25085	451.98239	-774.27881	1261.54834	213.81245	-524.54980	947.54828	164.79736	-1021.63586	997.61639	439.02292	-426.14462	757.53845	207.77536	-1013.95526	800.86694	607.75769	-618.72974	877.36987	452.44077	-819.56696	873.54346	472.07846	-749.40955	878.57709	144.61824	-532.81494	479.62759	449.79678	-898.91589	433.14767	310.62051	-504.91971	127.10061	569.01477				
186	1.850	-669.24860	1407.18665	540.17474	-753.67987	1489.42761	259.12125	-616.02490	1437.56091	342.32834	-800.62805	1437.37964	472.41476	-563.64203	1260.23669	263.32452	-913.16492	1253.97778	406.40738	-708.52307	1158.47205	466.36331	-771.27582	1259.65063	224.62218	-522.47839	946.15729	173.32942	-1016.49677	996.42352	453.04135	-423.67963	755.74829	216.41963	-1006.83740	802.62854	624.90833	-616.13055	875.36096	463.44150	-819.55109	872.22119	483.47278	-745.44696	877.30139	154.86150	-529.61249	477.25629	462.29605	-896.25745	431.97922	316.92126	-501.57452	130.39561	589.20276				
187	1.860	-665.90704	1405.78845	550.74371	-750.77094	1487.62329	269.50632	-612.80634	1436.01404	352.43622	-797.14478	1435.44714	483.00885	-560.45911	1258.19031	274.38882	-909.92719	1252.66772	416.97287	-705.02252	1156.38342	478.23779	-767.87677	1258.09351	235.13148	-520.15698	944.77258	183.07120	-1011.30804	994.86572	466.58194	-420.63724	754.65942	224.07356	-1000.20990	804.41998	641.37781	-614.12305	873.40808	474.70285	-817.96057	870.45459	493.77155	-741.53912	874.86847	167.53578	-526.24121	475.19339	473.99197	-893.07489	431.28580	322.93692	-499.46939	133.77357	605.06580				
188	1.870	-662.79028	1404.99829	561.57959	-747.97943	1485.92126	280.14642	-609.42261	1434.71094	362.86652	-793.56354	1433.76794	493.71317	-556.58374	1256.86316	284.26553	-906.50201	1251.17041	427.57419	-702.43573	1153.68262	485.49628	-764.56946	1256.04858	246.13774	-517.81000	943.32214	191.75352	-1005.92017	993.62787	478.86011	-417.06097	753.19672	233.41199	-991.69812	806.19293	657.21130	-611.27789	871.66180	486.35934	-814.63922	869.64862	504.73929	-738.36450	872.95062	178.31174	-522.65674	473.66678	485.04855	-889.26257	430.15036	329.79254	-497.03229	134.61418	619.24139				
